# xmcd
#
# Track frame offsets:
#	150
#	7591
#	32449
#	51211
#	70391
#	113765
#	150748
#	184337
#	213172
#	253560
#
# Disc length: 4039 seconds
#
# Revision: 0
# Processed by: cddbd v1.5.2PL0 Copyright (c) Steve Scherf et al.
# Submitted via: audiograbber 1.83.01
#
DISCID=790fc50a
DTITLE=The Allman Brothers Band - 2010 Bew Orleans Jazz Festivl
DYEAR=2010
DGENRE=Rock
TTITLE0=Crowd noise
TTITLE1=Don´t keep me wanderin´
TTITLE2=Trouble no more
TTITLE3=Mignight rider
TTITLE4=Woman across the river
TTITLE5=Ain´t wastin´ time no more
TTITLE6=Blind Willie Mc Tell
TTITLE7=Statesboro Blues
TTITLE8=Soulshine
TTITLE9=Blarck heartet woman
EXTD=New Orleans Jazz Festival [CD1)
EXTT0=
EXTT1=
EXTT2=
EXTT3=
EXTT4=
EXTT5=
EXTT6=
EXTT7=
EXTT8=
EXTT9=
PLAYORDER=
